<?xml version="1.0" encoding="utf-8"?>
<!-- Generator: Adobe Illustrator 23.0.0, SVG Export Plug-In . SVG Version: 6.00 Build 0)  -->
<svg version="1.1" id="Layer_1" xmlns="http://www.w3.org/2000/svg" xmlns:xlink="http://www.w3.org/1999/xlink" x="0px" y="0px"
	 viewBox="0 0 24 24" style="enable-background:new 0 0 24 24;" xml:space="preserve">
<style type="text/css">
	.st0{fill-rule:evenodd;clip-rule:evenodd;fill:#FFFFFF;}
</style>
<path class="st0" d="M12,2C9.9,2,7.8,2.8,6.3,4.3C4.8,5.8,4,7.9,4,10c0,3.1,2,6.1,4.2,8.4c1.1,1.1,2.2,2.1,3,2.7
	c0.3,0.2,0.6,0.4,0.8,0.6c0.2-0.2,0.5-0.4,0.8-0.6c0.8-0.7,1.9-1.6,3-2.7C18,16.1,20,13.1,20,10c0-2.1-0.8-4.2-2.3-5.7
	C16.2,2.8,14.1,2,12,2z M12,23c-0.6,0.8-0.6,0.8-0.6,0.8l0,0l0,0l0,0c0,0,0,0-0.1-0.1c-0.1,0-0.2-0.1-0.3-0.2
	c-0.3-0.2-0.6-0.5-1.1-0.8c-0.9-0.7-2-1.7-3.2-2.9C4.5,17.4,2,13.9,2,10c0-2.7,1.1-5.2,2.9-7.1C6.8,1.1,9.3,0,12,0
	c2.7,0,5.2,1.1,7.1,2.9C20.9,4.8,22,7.3,22,10c0,3.9-2.5,7.4-4.8,9.8C16.1,21,14.9,22,14,22.7c-0.4,0.3-0.8,0.6-1.1,0.8
	c-0.1,0.1-0.2,0.2-0.3,0.2c0,0-0.1,0-0.1,0.1l0,0l0,0l0,0C12.6,23.8,12.6,23.8,12,23z M12,23l0.6,0.8c-0.3,0.2-0.8,0.2-1.1,0L12,23z
	"/>
<path class="st0" d="M12,8c-1.1,0-2,0.9-2,2c0,1.1,0.9,2,2,2s2-0.9,2-2C14,8.9,13.1,8,12,8z M8,10c0-2.2,1.8-4,4-4c2.2,0,4,1.8,4,4
	c0,2.2-1.8,4-4,4C9.8,14,8,12.2,8,10z"/>
</svg>
