<svg width="18" height="18" viewBox="0 0 18 18" fill="none" xmlns="http://www.w3.org/2000/svg">
<path d="M10.4584 4.66682C12.4737 4.66682 13.3334 5.52644 13.3334 7.54182H15.25C15.25 4.45119 13.549 2.75015 10.4584 2.75015V4.66682ZM13.7378 9.88303C13.5536 9.71565 13.3116 9.62639 13.0629 9.63408C12.8142 9.64177 12.5782 9.74581 12.4047 9.92423L10.1114 12.2827C9.55944 12.1773 8.44969 11.8313 7.30736 10.6919C6.16503 9.54857 5.81907 8.43594 5.71653 7.88777L8.07307 5.59352C8.25171 5.42019 8.35591 5.18414 8.3636 4.93535C8.37129 4.68655 8.28187 4.44452 8.11428 4.26048L4.57323 0.366773C4.40557 0.182156 4.17254 0.0701725 3.92363 0.0546048C3.67473 0.0390371 3.42956 0.121112 3.24019 0.283398L1.16061 2.06686C0.994924 2.23314 0.896032 2.45445 0.882693 2.68881C0.868318 2.9284 0.594235 8.60365 4.9949 13.0062C8.83398 16.8444 13.6429 17.1252 14.9673 17.1252C15.1609 17.1252 15.2797 17.1194 15.3114 17.1175C15.5457 17.1044 15.7669 17.005 15.9324 16.8386L17.7149 14.7581C17.8773 14.5688 17.9595 14.3237 17.9441 14.0748C17.9287 13.8259 17.8169 13.5928 17.6324 13.425L13.7378 9.88303Z" fill="#BDBDBD"/>
</svg>
